<?xml version="1.0" encoding="utf-8"?><!DOCTYPE svg PUBLIC "-//W3C//DTD SVG 1.1//EN" "http://www.w3.org/Graphics/SVG/1.1/DTD/svg11.dtd"><svg id="feather" width="128" height="128" style="width:128px;height:128px;" version="1.1" xmlns="http://www.w3.org/2000/svg" viewBox="0 0 2048 2048" enable-background="new 0 0 2048 2048" xml:space="preserve"><path fill="#666" d="M2048 2048 q-48 -24 -125 -135 l-62 -101 q-164 -9 -289 -64.5 q-125 -55.5 -250 -165.5 q149 33 231 48 q96 9 211 5 l-125 -202 q-173 9 -312 -44 q-111 -43 -279 -163 q130 29 238 29 q108 0 252 -24 l-105 -207 q-193 34 -351.5 -7 q-158.5 -41 -360.5 -180 q216 24 317 24 q154 0 294 -44 q-164 -187 -375 -230 q-173 -39 -390 28 q-110 -115 -184.5 -218.5 q-74.5 -103.5 -185.5 -295.5 l-197 -101 l34 101 q48 130 110 274 q92 202 202 399 q140 245 303 466 q173 241 385 409 q173 149 375 240 q158 77 327 121 q115 28 225 38 q87 0 87 0 Z"/></svg>